<svg xmlns="http://www.w3.org/2000/svg" width="32" height="32" viewBox="0 0 32 32" fill="none">
<path fill-rule="evenodd" clip-rule="evenodd" d="M5.99935 11.3327C5.26602 11.3327 4.66602 10.7327 4.66602 9.99935V7.33268H1.99935C1.26602 7.33268 0.666016 6.73268 0.666016 5.99935C0.666016 5.26602 1.26602 4.66602 1.99935 4.66602H4.66602V1.99935C4.66602 1.26602 5.26602 0.666016 5.99935 0.666016C6.73268 0.666016 7.33268 1.26602 7.33268 1.99935V4.66602H9.99935C10.7327 4.66602 11.3327 5.26602 11.3327 5.99935C11.3327 6.73268 10.7327 7.33268 9.99935 7.33268H7.33268V9.99935C7.33268 10.7327 6.73268 11.3327 5.99935 11.3327ZM14.5359 16C15.2504 14.7624 16.5709 14 18 14C19.4291 14 20.7496 14.7624 21.4641 16C22.1786 17.2376 22.1786 18.7624 21.4641 20C20.7496 21.2376 19.4291 22 18 22C16.5709 22 15.2504 21.2376 14.5359 20C13.8214 18.7624 13.8214 17.2376 14.5359 16ZM28.666 7.33268H24.4394L22.786 5.53268C22.2927 4.98602 21.5727 4.66602 20.826 4.66602H12.2927C12.5193 5.06602 12.666 5.50602 12.666 5.99935C12.666 7.46601 11.466 8.66601 9.99935 8.66601H8.66602V9.99935C8.66602 11.466 7.46602 12.666 5.99935 12.666C5.50602 12.666 5.06602 12.5193 4.66602 12.2927V25.9993C4.66602 27.466 5.86602 28.666 7.33268 28.666H28.666C30.1327 28.666 31.3327 27.466 31.3327 25.9993V9.99935C31.3327 8.53268 30.1327 7.33268 28.666 7.33268ZM11.332 17.9987C11.332 21.6787 14.3187 24.6654 17.9987 24.6654C21.6787 24.6654 24.6654 21.6787 24.6654 17.9987C24.6654 14.3187 21.6787 11.332 17.9987 11.332C14.3187 11.332 11.332 14.3187 11.332 17.9987Z" fill="#0066FF"/>
</svg>