<svg width="26" height="26" viewBox="0 0 26 26" fill="none" xmlns="http://www.w3.org/2000/svg">
<g filter="url(#filter0_d_13341_11637)">
<path d="M24 12C24 18.6273 18.6273 24 12 24C5.37333 24 0 18.6273 0 12C0 5.37333 5.37333 0 12 0C18.6273 0 24 5.37333 24 12Z" fill="#5A5A5A"/>
</g>
<path d="M24 12C24 18.6273 18.6273 24 12 24C5.37333 24 0 18.6273 0 12C0 5.37333 5.37333 0 12 0C18.6273 0 24 5.37333 24 12Z" fill="#FF431A"/>
<path d="M7.66667 11.9997C8.58714 11.9997 9.33333 10.955 9.33333 9.66634C9.33333 8.37768 8.58714 7.33301 7.66667 7.33301C6.74619 7.33301 6 8.37768 6 9.66634C6 10.955 6.74619 11.9997 7.66667 11.9997Z" fill="black"/>
<path d="M16.3327 11.9997C17.2532 11.9997 17.9993 10.955 17.9993 9.66634C17.9993 8.37768 17.2532 7.33301 16.3327 7.33301C15.4122 7.33301 14.666 8.37768 14.666 9.66634C14.666 10.955 15.4122 11.9997 16.3327 11.9997Z" fill="black"/>
<path d="M5.77625 18.58C5.89492 18.6873 6.07225 18.694 6.19958 18.5993C6.22558 18.58 8.81425 16.666 11.9996 16.666C15.1769 16.666 17.7743 18.58 17.7996 18.5993C17.9269 18.694 18.1042 18.686 18.2229 18.58C18.3409 18.4733 18.3676 18.2973 18.2856 18.1613C18.1996 18.0187 16.1409 14.666 11.9996 14.666C7.85825 14.666 5.79892 18.018 5.71358 18.1613C5.63158 18.298 5.65758 18.4733 5.77625 18.58Z" fill="black"/>
<defs>
<filter id="filter0_d_13341_11637" x="0" y="0" width="26" height="26" filterUnits="userSpaceOnUse" color-interpolation-filters="sRGB">
<feFlood flood-opacity="0" result="BackgroundImageFix"/>
<feColorMatrix in="SourceAlpha" type="matrix" values="0 0 0 0 0 0 0 0 0 0 0 0 0 0 0 0 0 0 127 0" result="hardAlpha"/>
<feOffset dx="2" dy="2"/>
<feComposite in2="hardAlpha" operator="out"/>
<feColorMatrix type="matrix" values="0 0 0 0 0 0 0 0 0 0 0 0 0 0 0 0 0 0 0.1 0"/>
<feBlend mode="normal" in2="BackgroundImageFix" result="effect1_dropShadow_13341_11637"/>
<feBlend mode="normal" in="SourceGraphic" in2="effect1_dropShadow_13341_11637" result="shape"/>
</filter>
</defs>
</svg>
