<svg width="26" height="26" viewBox="0 0 26 26" fill="none" xmlns="http://www.w3.org/2000/svg">
<g filter="url(#filter0_d_13341_11652)">
<path d="M24 12C24 18.6273 18.6273 24 12 24C5.37333 24 0 18.6273 0 12C0 5.37333 5.37333 0 12 0C18.6273 0 24 5.37333 24 12Z" fill="#5A5A5A"/>
</g>
<path d="M12 24C18.6274 24 24 18.6274 24 12C24 5.37258 18.6274 0 12 0C5.37258 0 0 5.37258 0 12C0 18.6274 5.37258 24 12 24Z" fill="#FFCC4D"/>
<path d="M11.9998 13.9987C9.58451 13.9987 7.98184 13.7173 5.99984 13.332C5.54717 13.2447 4.6665 13.332 4.6665 14.6653C4.6665 17.332 7.72984 20.6653 11.9998 20.6653C16.2692 20.6653 19.3332 17.332 19.3332 14.6653C19.3332 13.332 18.4525 13.244 17.9998 13.332C16.0178 13.7173 14.4152 13.9987 11.9998 13.9987Z" fill="black"/>
<path d="M6 14.666C6 14.666 8 15.3327 12 15.3327C16 15.3327 18 14.666 18 14.666C18 14.666 16.6667 17.3327 12 17.3327C7.33333 17.3327 6 14.666 6 14.666Z" fill="white"/>
<path d="M8.00065 11.3332C8.92113 11.3332 9.66732 10.2885 9.66732 8.99984C9.66732 7.71117 8.92113 6.6665 8.00065 6.6665C7.08018 6.6665 6.33398 7.71117 6.33398 8.99984C6.33398 10.2885 7.08018 11.3332 8.00065 11.3332Z" fill="black"/>
<path d="M15.9987 11.3332C16.9192 11.3332 17.6654 10.2885 17.6654 8.99984C17.6654 7.71117 16.9192 6.6665 15.9987 6.6665C15.0782 6.6665 14.332 7.71117 14.332 8.99984C14.332 10.2885 15.0782 11.3332 15.9987 11.3332Z" fill="black"/>
<defs>
<filter id="filter0_d_13341_11652" x="0" y="0" width="26" height="26" filterUnits="userSpaceOnUse" color-interpolation-filters="sRGB">
<feFlood flood-opacity="0" result="BackgroundImageFix"/>
<feColorMatrix in="SourceAlpha" type="matrix" values="0 0 0 0 0 0 0 0 0 0 0 0 0 0 0 0 0 0 127 0" result="hardAlpha"/>
<feOffset dx="2" dy="2"/>
<feComposite in2="hardAlpha" operator="out"/>
<feColorMatrix type="matrix" values="0 0 0 0 0 0 0 0 0 0 0 0 0 0 0 0 0 0 0.1 0"/>
<feBlend mode="normal" in2="BackgroundImageFix" result="effect1_dropShadow_13341_11652"/>
<feBlend mode="normal" in="SourceGraphic" in2="effect1_dropShadow_13341_11652" result="shape"/>
</filter>
</defs>
</svg>
