<svg width="26" height="26" viewBox="0 0 26 26" fill="none" xmlns="http://www.w3.org/2000/svg">
<g filter="url(#filter0_d_16789_10211)">
<path d="M24 12C24 18.6273 18.6273 24 12 24C5.37333 24 0 18.6273 0 12C0 5.37333 5.37333 0 12 0C18.6273 0 24 5.37333 24 12Z" fill="#5A5A5A"/>
</g>
<path d="M24 12C24 18.6273 18.6273 24 12 24C5.37333 24 0 18.6273 0 12C0 5.37333 5.37333 0 12 0C18.6273 0 24 5.37333 24 12Z" fill="#F7C145"/>
<path d="M7.66667 13.3337C8.58714 13.3337 9.33333 12.289 9.33333 11.0003C9.33333 9.71166 8.58714 8.66699 7.66667 8.66699C6.74619 8.66699 6 9.71166 6 11.0003C6 12.289 6.74619 13.3337 7.66667 13.3337Z" fill="black"/>
<path d="M16.3337 13.3327C17.2541 13.3327 18.0003 12.288 18.0003 10.9993C18.0003 9.71068 17.2541 8.66602 16.3337 8.66602C15.4132 8.66602 14.667 9.71068 14.667 10.9993C14.667 12.288 15.4132 13.3327 16.3337 13.3327Z" fill="black"/>
<path d="M16.667 17.3338H7.33366C6.96566 17.3338 6.66699 17.0358 6.66699 16.6672C6.66699 16.2985 6.96566 16.0005 7.33366 16.0005H16.667C17.0357 16.0005 17.3337 16.2985 17.3337 16.6672C17.3337 17.0358 17.0357 17.3338 16.667 17.3338Z" fill="black"/>
<defs>
<filter id="filter0_d_16789_10211" x="0" y="0" width="26" height="26" filterUnits="userSpaceOnUse" color-interpolation-filters="sRGB">
<feFlood flood-opacity="0" result="BackgroundImageFix"/>
<feColorMatrix in="SourceAlpha" type="matrix" values="0 0 0 0 0 0 0 0 0 0 0 0 0 0 0 0 0 0 127 0" result="hardAlpha"/>
<feOffset dx="2" dy="2"/>
<feComposite in2="hardAlpha" operator="out"/>
<feColorMatrix type="matrix" values="0 0 0 0 0 0 0 0 0 0 0 0 0 0 0 0 0 0 0.1 0"/>
<feBlend mode="normal" in2="BackgroundImageFix" result="effect1_dropShadow_16789_10211"/>
<feBlend mode="normal" in="SourceGraphic" in2="effect1_dropShadow_16789_10211" result="shape"/>
</filter>
</defs>
</svg>
