<svg xmlns="http://www.w3.org/2000/svg" width="16" height="17" viewBox="0 0 16 17" fill="none">
<path d="M7.99942 9.4849L4.78276 12.7016C4.64942 12.8349 4.48831 12.8988 4.29942 12.8932C4.11053 12.8877 3.94942 12.8182 3.81609 12.6849C3.68276 12.5516 3.61609 12.3877 3.61609 12.1932C3.61609 11.9988 3.68276 11.8349 3.81609 11.7016L7.01609 8.50156L3.79942 5.2849C3.66609 5.15156 3.6022 4.98767 3.60776 4.79323C3.61331 4.59878 3.68276 4.4349 3.81609 4.30156C3.94942 4.16823 4.11331 4.10156 4.30776 4.10156C4.5022 4.10156 4.66609 4.16823 4.79942 4.30156L7.99942 7.51823L11.2161 4.30156C11.3494 4.16823 11.5133 4.10156 11.7078 4.10156C11.9022 4.10156 12.0661 4.16823 12.1994 4.30156C12.3328 4.4349 12.3994 4.59878 12.3994 4.79323C12.3994 4.98767 12.3328 5.15156 12.1994 5.2849L8.98276 8.50156L12.1994 11.7182C12.3328 11.8516 12.3994 12.0127 12.3994 12.2016C12.3994 12.3905 12.3328 12.5516 12.1994 12.6849C12.0661 12.8182 11.9022 12.8849 11.7078 12.8849C11.5133 12.8849 11.3494 12.8182 11.2161 12.6849L7.99942 9.4849Z" fill="#248E28"/>
</svg>